<svg id="Calque_1" data-name="Calque 1" xmlns="http://www.w3.org/2000/svg" viewBox="0 0 656.25 202.55"><defs><style>.cls-1,.cls-4,.cls-5{fill:#18d873;}.cls-2{fill:#fff;}.cls-3{font-size:114.97px;font-family:SofiaProSemiBold, Sofia Pro;}.cls-4,.cls-5,.cls-6{font-weight:700;}.cls-4{letter-spacing:-0.01em;}.cls-7,.cls-8,.cls-9{font-family:SofiaProUltraLight, Sofia Pro;}.cls-7{letter-spacing:0em;}.cls-8{letter-spacing:-0.01em;}</style></defs><title>Logo horizontal</title><circle class="cls-1" cx="98.79" cy="101.54" r="73.08"/><path class="cls-2" d="M79.12,74a2.21,2.21,0,1,0,2,2.44h0A2.21,2.21,0,0,0,79.12,74Z"/><path class="cls-2" d="M117.71,78.14a2.22,2.22,0,1,0,2,2.44h0A2.23,2.23,0,0,0,117.71,78.14Z"/><path class="cls-2" d="M98.46,76.1a2.21,2.21,0,1,0,2,2.44h0A2.22,2.22,0,0,0,98.46,76.1Z"/><path class="cls-2" d="M77.39,90.33a2.21,2.21,0,1,0,2,2.44h0A2.21,2.21,0,0,0,77.39,90.33Z"/><path class="cls-2" d="M116,94.43a2.21,2.21,0,1,0,2,2.44h0A2.21,2.21,0,0,0,116,94.43Z"/><path class="cls-2" d="M96.73,92.38a2.21,2.21,0,1,0,2,2.45h0A2.22,2.22,0,0,0,96.73,92.38Z"/><path class="cls-2" d="M75.65,106.61a2.21,2.21,0,1,0,2,2.44h0A2.22,2.22,0,0,0,75.65,106.61Z"/><path class="cls-2" d="M95,108.67a2.21,2.21,0,1,0,2,2.44h0A2.22,2.22,0,0,0,95,108.67Z"/><path class="cls-2" d="M73.92,122.9a2.21,2.21,0,1,0,2,2.44v0A2.22,2.22,0,0,0,73.92,122.9Z"/><path class="cls-2" d="M70.46,62.69a3.74,3.74,0,0,1,1,.14,3.39,3.39,0,0,1,2.38,2.87,1.54,1.54,0,0,0,1.39,1.37h.16a1.56,1.56,0,0,0,1.49-1,3.37,3.37,0,0,1,3.2-2.3,3.34,3.34,0,0,1,1.08.17,3.39,3.39,0,0,1,2.29,2.83A1.56,1.56,0,0,0,85,68.13h.17A1.56,1.56,0,0,0,86.47,67a3.38,3.38,0,0,1,3.21-2.32,3.49,3.49,0,0,1,1,.17A3.38,3.38,0,0,1,93,67.74a1.56,1.56,0,0,0,1.56,1.41h.15a1.56,1.56,0,0,0,1.34-1.07,3.37,3.37,0,0,1,3.2-2.32,3.26,3.26,0,0,1,1.06.17,3.37,3.37,0,0,1,2.29,2.85,1.58,1.58,0,0,0,1.56,1.4h.16a1.58,1.58,0,0,0,1.33-1.08,3.38,3.38,0,0,1,3.2-2.32,3.56,3.56,0,0,1,1.06.17,3.38,3.38,0,0,1,2.3,2.85,1.57,1.57,0,0,0,1.56,1.37H114a1.6,1.6,0,0,0,1.28-1,3.36,3.36,0,0,1,3.2-2.32,3.49,3.49,0,0,1,1.05.17,3.38,3.38,0,0,1,2.3,2.85,1.58,1.58,0,0,0,1.57,1.43h.15a1.58,1.58,0,0,0,1.35-1.08,3.38,3.38,0,0,1,3.21-2.31,3.4,3.4,0,0,1,2.63,1.26,3.34,3.34,0,0,1,.71,2.49h0a3.39,3.39,0,0,1-3.24,3,1.57,1.57,0,0,0-.32,3.08,3.37,3.37,0,0,1-.7,6.63,1.57,1.57,0,0,0-.33,3.07A3.35,3.35,0,0,1,129.4,92a3.4,3.4,0,0,1-3.24,3H126a1.57,1.57,0,0,0-.17,3.14,3.2,3.2,0,0,1,1.15.58c-8.59,1.8-15.71,8.93-16.41,17.18a.17.17,0,0,1-.07.11,19.32,19.32,0,0,0-7.14,9.32.26.26,0,0,1-.26.19h0a17.26,17.26,0,0,0-2.37-.16,19.37,19.37,0,0,0-18.6,13.77,3,3,0,0,1-.65-.13,3.37,3.37,0,0,1-2.29-2.85,1.59,1.59,0,0,0-1.57-1.37h-.2a1.58,1.58,0,0,0-1.28,1,3.38,3.38,0,0,1-3.21,2.32,3.54,3.54,0,0,1-1-.17,3.38,3.38,0,0,1-2.3-2.85A1.58,1.58,0,0,0,68,133.67h-.13a1.57,1.57,0,0,0-1.39,1.15,3.38,3.38,0,0,1-3.2,2.3,3.46,3.46,0,0,1-1.09-.18,3.41,3.41,0,0,1-1.54-1.08,3.33,3.33,0,0,1-.74-2.5,3.38,3.38,0,0,1,3.08-3,1.57,1.57,0,0,0,.36-3.05,3.38,3.38,0,0,1,.69-6.59,1.57,1.57,0,0,0,.35-3.08,3.39,3.39,0,0,1,.7-6.61,1.56,1.56,0,0,0,.35-3.05,3.37,3.37,0,0,1,.7-6.6,1.57,1.57,0,0,0,1.43-1.69,1.59,1.59,0,0,0-1.11-1.37,3.38,3.38,0,0,1,.71-6.61,1.57,1.57,0,0,0,.32-3.06,3.38,3.38,0,0,1,.66-6.55h.17A1.58,1.58,0,0,0,68.45,79a3.38,3.38,0,0,1,.69-6.6,1.57,1.57,0,0,0,.34-3.06,3.38,3.38,0,0,1,1-6.62m0-3.13a6.51,6.51,0,0,0-5.74,9.58,6.27,6.27,0,0,0,.9,1.3,6.52,6.52,0,0,0-.93,9.77,6.53,6.53,0,0,0-1,9.55,6.53,6.53,0,0,0-1.08,9.7,6.51,6.51,0,0,0-1,9.66,6.52,6.52,0,0,0-1,9.69,6.51,6.51,0,0,0-1.06,9.61,6.54,6.54,0,0,0-1.29,9.44,6.61,6.61,0,0,0,3,2.06,6.78,6.78,0,0,0,2.09.34,6.5,6.5,0,0,0,4.37-1.69,6.53,6.53,0,0,0,3.24,2.37,6.39,6.39,0,0,0,2,.33,6.54,6.54,0,0,0,4.35-1.66A6.48,6.48,0,0,0,80.46,142a5.35,5.35,0,0,0,1.3.27,1.83,1.83,0,0,0,.33,0,3.13,3.13,0,0,0,3-2.24,16.32,16.32,0,0,1,15.6-11.53,16.56,16.56,0,0,1,2,.13,3.25,3.25,0,0,0,.44,0,3.37,3.37,0,0,0,3.21-2.27,16.2,16.2,0,0,1,6-7.8,3.36,3.36,0,0,0,1.4-2.42c.57-6.65,6.56-12.83,13.93-14.38a3.13,3.13,0,0,0,2-4.72,6.49,6.49,0,0,0,1.19-9.82,6.49,6.49,0,0,0,1-9.69,6.49,6.49,0,0,0,2.66-4.26l.06-.31a6.46,6.46,0,0,0-4.37-6.91,6.44,6.44,0,0,0-2.08-.35,6.54,6.54,0,0,0-4.35,1.66A6.51,6.51,0,0,0,120.52,65a6.39,6.39,0,0,0-2-.33,6.49,6.49,0,0,0-4.34,1.66A6.51,6.51,0,0,0,110.92,64a6.49,6.49,0,0,0-6.38,1.33,6.48,6.48,0,0,0-3.23-2.36,6.63,6.63,0,0,0-2-.32,6.44,6.44,0,0,0-4.34,1.66,6.47,6.47,0,0,0-3.23-2.36,6.47,6.47,0,0,0-6.39,1.35,6.57,6.57,0,0,0-5.26-2.68,6.57,6.57,0,0,0-4.33,1.65,6.53,6.53,0,0,0-3.38-2.4,6.41,6.41,0,0,0-1.89-.28Z"/><circle class="cls-2" cx="106.15" cy="136.25" r="2.96"/><circle class="cls-2" cx="135.35" cy="124.19" r="2.96"/><circle class="cls-2" cx="122.51" cy="127.1" r="1.35"/><circle class="cls-2" cx="122.88" cy="118.74" r="1.95"/><circle class="cls-2" cx="128.91" cy="143.8" r="1.95"/><text class="cls-3" transform="translate(201.81 136.94)"><tspan class="cls-4">E</tspan><tspan class="cls-5" x="64.27" y="0">at</tspan><tspan class="cls-6" x="174.29" y="0"> </tspan><tspan class="cls-7" x="202.34" y="0">U</tspan><tspan class="cls-8" x="280.29" y="0">n</tspan><tspan class="cls-9" x="343.87" y="0">til</tspan></text></svg>